<svg xmlns="http://www.w3.org/2000/svg" viewBox="0 0 1920 600" width="1920" height="600" role="img"><style>@keyframes wA{0%,49%{transform:translateY(0)}50%,100%{transform:translateY(-12px)}}@keyframes wB{0%,49%{transform:translateY(-12px)}50%,100%{transform:translateY(0)}}.legA{animation:wA .5s steps(1,end) infinite}.legB{animation:wB .5s steps(1,end) infinite}@keyframes bl{0%,92%{transform:scaleY(1)}94%,97%{transform:scaleY(.12)}100%{transform:scaleY(1)}}.blink{animation:bl 4s ease-in-out infinite;transform-origin:50% 50px}@keyframes lk{0%,30%{transform:translateX(0)}40%,55%{transform:translateX(-20px)}65%,80%{transform:translateX(20px)}90%,100%{transform:translateX(0)}}.look{animation:lk 8s ease-in-out infinite}@keyframes hp{0%,70%{transform:translateY(0)}78%{transform:translateY(-26px)}86%{transform:translateY(0)}90%{transform:translateY(-9px)}100%{transform:translateY(0)}}.hop{animation:hp 4s ease-out infinite}@keyframes er{0%,60%{transform:translateY(0)}70%{transform:translateY(-14px)}80%{transform:translateY(0)}100%{transform:translateY(0)}}.ears{animation:er 2s ease-in-out infinite}@keyframes t0{0%{opacity:.14}50%{opacity:.85}100%{opacity:.14}}@keyframes t1{0%{opacity:.55}35%{opacity:.10}70%{opacity:.9}100%{opacity:.55}}@keyframes t2{0%{opacity:.30}25%{opacity:.95}60%{opacity:.18}100%{opacity:.30}}.tw0{animation:t0 8.0s ease-in-out infinite}.tw1{animation:t1 16.0s ease-in-out infinite}.tw2{animation:t2 4.0s ease-in-out infinite}@keyframes dF{from{transform:translateX(0)}to{transform:translateX(-1960px)}}@keyframes dM{from{transform:translateX(0)}to{transform:translateX(-1960px)}}.cf{animation:dF 32s linear infinite}.cm{animation:dM 16.0s linear infinite}@media (prefers-reduced-motion:reduce){*{animation:none!important}}</style><defs><pattern id="c1" width="8" height="8" patternUnits="userSpaceOnUse"><rect width="4" height="4" fill="#39424e"/><rect x="4" y="4" width="4" height="4" fill="#39424e"/></pattern><pattern id="c2" width="8" height="8" patternUnits="userSpaceOnUse"><rect width="4" height="4" fill="#2a3240"/></pattern><pattern id="c3" width="8" height="8" patternUnits="userSpaceOnUse"><rect width="8" height="8" fill="#3d4754"/><rect x="4" width="4" height="4" fill="#4e5b6c"/><rect y="4" width="4" height="4" fill="#4e5b6c"/></pattern><g id="clawd" shape-rendering="crispEdges"><g class="hop">  <g class="ears"><rect x="0" y="40" width="20" height="40" fill="#D77757"/>  <rect x="200" y="40" width="20" height="40" fill="#D77757"/></g>  <rect x="20" y="0" width="180" height="120" fill="#D77757"/>  <g class="look"><g class="blink"><rect x="40" y="40" width="20" height="20" fill="#0b0e13"/><rect x="160" y="40" width="20" height="20" fill="#0b0e13"/></g></g>  <g class="legA"><rect x="20" y="120" width="20" height="40" fill="#D77757"/>  <rect x="140" y="120" width="20" height="40" fill="#D77757"/></g>  <g class="legB"><rect x="60" y="120" width="20" height="40" fill="#D77757"/>  <rect x="180" y="120" width="20" height="40" fill="#D77757"/></g></g></g></defs><rect width="1920" height="600" fill="#0b0e13"/><text class="tw0" style="animation-delay:-0.00s" x="511" y="177" font-family="ui-monospace,Menlo,monospace" font-size="34" fill="#9aa7b8">*</text><text class="tw1" style="animation-delay:-1.07s" x="291" y="120" font-family="ui-monospace,Menlo,monospace" font-size="34" fill="#9aa7b8">*</text><text class="tw2" style="animation-delay:-2.13s" x="994" y="186" font-family="ui-monospace,Menlo,monospace" font-size="34" fill="#9aa7b8">*</text><text class="tw0" style="animation-delay:-3.20s" x="158" y="181" font-family="ui-monospace,Menlo,monospace" font-size="18" fill="#9aa7b8">*</text><text class="tw1" style="animation-delay:-4.27s" x="1885" y="240" font-family="ui-monospace,Menlo,monospace" font-size="28" fill="#9aa7b8">*</text><text class="tw2" style="animation-delay:-5.33s" x="555" y="167" font-family="ui-monospace,Menlo,monospace" font-size="22" fill="#9aa7b8">*</text><text class="tw0" style="animation-delay:-6.40s" x="416" y="209" font-family="ui-monospace,Menlo,monospace" font-size="28" fill="#9aa7b8">*</text><text class="tw1" style="animation-delay:-7.47s" x="1131" y="240" font-family="ui-monospace,Menlo,monospace" font-size="34" fill="#9aa7b8">*</text><text class="tw2" style="animation-delay:-8.53s" x="999" y="127" font-family="ui-monospace,Menlo,monospace" font-size="22" fill="#9aa7b8">*</text><text class="tw0" style="animation-delay:-9.60s" x="498" y="188" font-family="ui-monospace,Menlo,monospace" font-size="22" fill="#9aa7b8">*</text><text class="tw1" style="animation-delay:-10.67s" x="1801" y="159" font-family="ui-monospace,Menlo,monospace" font-size="28" fill="#9aa7b8">*</text><text class="tw2" style="animation-delay:-11.73s" x="1542" y="29" font-family="ui-monospace,Menlo,monospace" font-size="18" fill="#9aa7b8">*</text><text class="tw0" style="animation-delay:-12.80s" x="350" y="220" font-family="ui-monospace,Menlo,monospace" font-size="34" fill="#9aa7b8">*</text><text class="tw1" style="animation-delay:-13.87s" x="111" y="103" font-family="ui-monospace,Menlo,monospace" font-size="18" fill="#9aa7b8">*</text><text class="tw2" style="animation-delay:-14.93s" x="1710" y="247" font-family="ui-monospace,Menlo,monospace" font-size="22" fill="#9aa7b8">*</text><text class="tw0" style="animation-delay:-16.00s" x="992" y="178" font-family="ui-monospace,Menlo,monospace" font-size="28" fill="#9aa7b8">*</text><text class="tw1" style="animation-delay:-17.07s" x="1486" y="227" font-family="ui-monospace,Menlo,monospace" font-size="28" fill="#9aa7b8">*</text><text class="tw2" style="animation-delay:-18.13s" x="832" y="212" font-family="ui-monospace,Menlo,monospace" font-size="34" fill="#9aa7b8">*</text><text class="tw0" style="animation-delay:-19.20s" x="934" y="60" font-family="ui-monospace,Menlo,monospace" font-size="22" fill="#9aa7b8">*</text><text class="tw1" style="animation-delay:-20.27s" x="223" y="35" font-family="ui-monospace,Menlo,monospace" font-size="22" fill="#9aa7b8">*</text><text class="tw2" style="animation-delay:-21.33s" x="1037" y="81" font-family="ui-monospace,Menlo,monospace" font-size="22" fill="#9aa7b8">*</text><text class="tw0" style="animation-delay:-22.40s" x="1400" y="137" font-family="ui-monospace,Menlo,monospace" font-size="22" fill="#9aa7b8">*</text><text class="tw1" style="animation-delay:-23.47s" x="886" y="155" font-family="ui-monospace,Menlo,monospace" font-size="28" fill="#9aa7b8">*</text><text class="tw2" style="animation-delay:-24.53s" x="1199" y="115" font-family="ui-monospace,Menlo,monospace" font-size="34" fill="#9aa7b8">*</text><text class="tw0" style="animation-delay:-25.60s" x="1222" y="130" font-family="ui-monospace,Menlo,monospace" font-size="34" fill="#9aa7b8">*</text><text class="tw1" style="animation-delay:-26.67s" x="499" y="112" font-family="ui-monospace,Menlo,monospace" font-size="18" fill="#9aa7b8">*</text><text class="tw2" style="animation-delay:-27.73s" x="1777" y="97" font-family="ui-monospace,Menlo,monospace" font-size="34" fill="#9aa7b8">*</text><text class="tw0" style="animation-delay:-28.80s" x="1398" y="204" font-family="ui-monospace,Menlo,monospace" font-size="22" fill="#9aa7b8">*</text><text class="tw1" style="animation-delay:-29.87s" x="1454" y="246" font-family="ui-monospace,Menlo,monospace" font-size="22" fill="#9aa7b8">*</text><text class="tw2" style="animation-delay:-30.93s" x="1133" y="172" font-family="ui-monospace,Menlo,monospace" font-size="34" fill="#9aa7b8">*</text><rect x="1624" y="44" width="22" height="22" fill="url(#c3)"/><rect x="1646" y="44" width="22" height="22" fill="url(#c1)"/><rect x="1668" y="44" width="22" height="22" fill="url(#c3)"/><rect x="1690" y="44" width="22" height="22" fill="url(#c3)"/><rect x="1712" y="44" width="22" height="22" fill="url(#c1)"/><rect x="1602" y="66" width="22" height="22" fill="url(#c3)"/><rect x="1624" y="66" width="22" height="22" fill="url(#c1)"/><rect x="1646" y="66" width="22" height="22" fill="url(#c3)"/><rect x="1668" y="66" width="22" height="22" fill="url(#c3)"/><rect x="1690" y="66" width="22" height="22" fill="url(#c1)"/><rect x="1712" y="66" width="22" height="22" fill="url(#c3)"/><rect x="1734" y="66" width="22" height="22" fill="url(#c3)"/><rect x="1602" y="88" width="22" height="22" fill="url(#c1)"/><rect x="1624" y="88" width="22" height="22" fill="url(#c3)"/><rect x="1712" y="88" width="22" height="22" fill="url(#c3)"/><rect x="1734" y="88" width="22" height="22" fill="url(#c1)"/><rect x="1580" y="110" width="22" height="22" fill="url(#c1)"/><rect x="1602" y="110" width="22" height="22" fill="url(#c3)"/><rect x="1624" y="110" width="22" height="22" fill="url(#c3)"/><rect x="1580" y="132" width="22" height="22" fill="url(#c3)"/><rect x="1602" y="132" width="22" height="22" fill="url(#c3)"/><rect x="1580" y="154" width="22" height="22" fill="url(#c3)"/><rect x="1602" y="154" width="22" height="22" fill="url(#c1)"/><rect x="1624" y="154" width="22" height="22" fill="url(#c3)"/><rect x="1602" y="176" width="22" height="22" fill="url(#c3)"/><rect x="1624" y="176" width="22" height="22" fill="url(#c3)"/><rect x="1712" y="176" width="22" height="22" fill="url(#c1)"/><rect x="1734" y="176" width="22" height="22" fill="url(#c3)"/><rect x="1602" y="198" width="22" height="22" fill="url(#c3)"/><rect x="1624" y="198" width="22" height="22" fill="url(#c1)"/><rect x="1646" y="198" width="22" height="22" fill="url(#c3)"/><rect x="1668" y="198" width="22" height="22" fill="url(#c3)"/><rect x="1690" y="198" width="22" height="22" fill="url(#c1)"/><rect x="1712" y="198" width="22" height="22" fill="url(#c3)"/><rect x="1734" y="198" width="22" height="22" fill="url(#c3)"/><rect x="1624" y="220" width="22" height="22" fill="url(#c3)"/><rect x="1646" y="220" width="22" height="22" fill="url(#c3)"/><rect x="1668" y="220" width="22" height="22" fill="url(#c1)"/><rect x="1690" y="220" width="22" height="22" fill="url(#c3)"/><rect x="1712" y="220" width="22" height="22" fill="url(#c3)"/><rect x="1668" y="44" width="22" height="22" fill="#cbd5e1" opacity=".8"/><rect x="1690" y="44" width="22" height="22" fill="#cbd5e1" opacity=".8"/><rect x="1668" y="66" width="22" height="22" fill="#cbd5e1" opacity=".8"/><rect x="1690" y="66" width="22" height="22" fill="#cbd5e1" opacity=".8"/><rect x="1668" y="198" width="22" height="22" fill="#cbd5e1" opacity=".8"/><rect x="1668" y="220" width="22" height="22" fill="#cbd5e1" opacity=".8"/><g class="cf"><rect x="60" y="253" width="40" height="47" fill="url(#c2)"/><rect x="100" y="237" width="40" height="63" fill="url(#c2)"/><rect x="140" y="224" width="40" height="76" fill="url(#c2)"/><rect x="180" y="214" width="40" height="86" fill="url(#c2)"/><rect x="220" y="208" width="40" height="92" fill="url(#c2)"/><rect x="260" y="214" width="40" height="86" fill="url(#c2)"/><rect x="300" y="224" width="40" height="76" fill="url(#c2)"/><rect x="340" y="237" width="40" height="63" fill="url(#c2)"/><rect x="620" y="239" width="40" height="47" fill="url(#c2)"/><rect x="660" y="223" width="40" height="63" fill="url(#c2)"/><rect x="700" y="210" width="40" height="76" fill="url(#c2)"/><rect x="740" y="194" width="40" height="92" fill="url(#c2)"/><rect x="780" y="194" width="40" height="92" fill="url(#c2)"/><rect x="820" y="210" width="40" height="76" fill="url(#c2)"/><rect x="860" y="223" width="40" height="63" fill="url(#c2)"/><rect x="1120" y="257" width="40" height="47" fill="url(#c2)"/><rect x="1160" y="241" width="40" height="63" fill="url(#c2)"/><rect x="1200" y="228" width="40" height="76" fill="url(#c2)"/><rect x="1240" y="218" width="40" height="86" fill="url(#c2)"/><rect x="1280" y="212" width="40" height="92" fill="url(#c2)"/><rect x="1320" y="212" width="40" height="92" fill="url(#c2)"/><rect x="1360" y="218" width="40" height="86" fill="url(#c2)"/><rect x="1400" y="228" width="40" height="76" fill="url(#c2)"/><rect x="1440" y="241" width="40" height="63" fill="url(#c2)"/><rect x="1640" y="245" width="40" height="47" fill="url(#c2)"/><rect x="1680" y="229" width="40" height="63" fill="url(#c2)"/><rect x="1720" y="206" width="40" height="86" fill="url(#c2)"/><rect x="1760" y="200" width="40" height="92" fill="url(#c2)"/><rect x="1800" y="206" width="40" height="86" fill="url(#c2)"/><rect x="1840" y="229" width="40" height="63" fill="url(#c2)"/><rect x="2020" y="253" width="40" height="47" fill="url(#c2)"/><rect x="2060" y="237" width="40" height="63" fill="url(#c2)"/><rect x="2100" y="224" width="40" height="76" fill="url(#c2)"/><rect x="2140" y="214" width="40" height="86" fill="url(#c2)"/><rect x="2180" y="208" width="40" height="92" fill="url(#c2)"/><rect x="2220" y="214" width="40" height="86" fill="url(#c2)"/><rect x="2260" y="224" width="40" height="76" fill="url(#c2)"/><rect x="2300" y="237" width="40" height="63" fill="url(#c2)"/><rect x="2580" y="239" width="40" height="47" fill="url(#c2)"/><rect x="2620" y="223" width="40" height="63" fill="url(#c2)"/><rect x="2660" y="210" width="40" height="76" fill="url(#c2)"/><rect x="2700" y="194" width="40" height="92" fill="url(#c2)"/><rect x="2740" y="194" width="40" height="92" fill="url(#c2)"/><rect x="2780" y="210" width="40" height="76" fill="url(#c2)"/><rect x="2820" y="223" width="40" height="63" fill="url(#c2)"/><rect x="3080" y="257" width="40" height="47" fill="url(#c2)"/><rect x="3120" y="241" width="40" height="63" fill="url(#c2)"/><rect x="3160" y="228" width="40" height="76" fill="url(#c2)"/><rect x="3200" y="218" width="40" height="86" fill="url(#c2)"/><rect x="3240" y="212" width="40" height="92" fill="url(#c2)"/><rect x="3280" y="212" width="40" height="92" fill="url(#c2)"/><rect x="3320" y="218" width="40" height="86" fill="url(#c2)"/><rect x="3360" y="228" width="40" height="76" fill="url(#c2)"/><rect x="3400" y="241" width="40" height="63" fill="url(#c2)"/><rect x="3600" y="245" width="40" height="47" fill="url(#c2)"/><rect x="3640" y="229" width="40" height="63" fill="url(#c2)"/><rect x="3680" y="206" width="40" height="86" fill="url(#c2)"/><rect x="3720" y="200" width="40" height="92" fill="url(#c2)"/><rect x="3760" y="206" width="40" height="86" fill="url(#c2)"/><rect x="3800" y="229" width="40" height="63" fill="url(#c2)"/></g><g class="cm"><rect x="180" y="325" width="40" height="47" fill="url(#c1)"/><rect x="220" y="309" width="40" height="63" fill="url(#c1)"/><rect x="260" y="296" width="40" height="76" fill="url(#c1)"/><rect x="300" y="280" width="40" height="92" fill="url(#c1)"/><rect x="340" y="280" width="40" height="92" fill="url(#c1)"/><rect x="380" y="296" width="40" height="76" fill="url(#c1)"/><rect x="420" y="309" width="40" height="63" fill="url(#c1)"/><rect x="780" y="315" width="40" height="47" fill="url(#c1)"/><rect x="820" y="299" width="40" height="63" fill="url(#c1)"/><rect x="860" y="286" width="40" height="76" fill="url(#c1)"/><rect x="900" y="276" width="40" height="86" fill="url(#c1)"/><rect x="940" y="270" width="40" height="92" fill="url(#c1)"/><rect x="980" y="276" width="40" height="86" fill="url(#c1)"/><rect x="1020" y="286" width="40" height="76" fill="url(#c1)"/><rect x="1060" y="299" width="40" height="63" fill="url(#c1)"/><rect x="1400" y="329" width="40" height="47" fill="url(#c1)"/><rect x="1440" y="313" width="40" height="63" fill="url(#c1)"/><rect x="1480" y="300" width="40" height="76" fill="url(#c1)"/><rect x="1520" y="284" width="40" height="92" fill="url(#c1)"/><rect x="1560" y="284" width="40" height="92" fill="url(#c1)"/><rect x="1600" y="300" width="40" height="76" fill="url(#c1)"/><rect x="1640" y="313" width="40" height="63" fill="url(#c1)"/><rect x="2140" y="325" width="40" height="47" fill="url(#c1)"/><rect x="2180" y="309" width="40" height="63" fill="url(#c1)"/><rect x="2220" y="296" width="40" height="76" fill="url(#c1)"/><rect x="2260" y="280" width="40" height="92" fill="url(#c1)"/><rect x="2300" y="280" width="40" height="92" fill="url(#c1)"/><rect x="2340" y="296" width="40" height="76" fill="url(#c1)"/><rect x="2380" y="309" width="40" height="63" fill="url(#c1)"/><rect x="2740" y="315" width="40" height="47" fill="url(#c1)"/><rect x="2780" y="299" width="40" height="63" fill="url(#c1)"/><rect x="2820" y="286" width="40" height="76" fill="url(#c1)"/><rect x="2860" y="276" width="40" height="86" fill="url(#c1)"/><rect x="2900" y="270" width="40" height="92" fill="url(#c1)"/><rect x="2940" y="276" width="40" height="86" fill="url(#c1)"/><rect x="2980" y="286" width="40" height="76" fill="url(#c1)"/><rect x="3020" y="299" width="40" height="63" fill="url(#c1)"/><rect x="3360" y="329" width="40" height="47" fill="url(#c1)"/><rect x="3400" y="313" width="40" height="63" fill="url(#c1)"/><rect x="3440" y="300" width="40" height="76" fill="url(#c1)"/><rect x="3480" y="284" width="40" height="92" fill="url(#c1)"/><rect x="3520" y="284" width="40" height="92" fill="url(#c1)"/><rect x="3560" y="300" width="40" height="76" fill="url(#c1)"/><rect x="3600" y="313" width="40" height="63" fill="url(#c1)"/></g><line x1="0" y1="92" x2="1920" y2="92" stroke="#6f7b8a" stroke-width="3" stroke-dasharray="3 9" stroke-linecap="round" opacity="0.42"/><line x1="0" y1="506" x2="1920" y2="506" stroke="#6f7b8a" stroke-width="3" stroke-dasharray="3 9" stroke-linecap="round" opacity="0.7"/><line x1="0" y1="522" x2="1920" y2="522" stroke="#6f7b8a" stroke-width="3" stroke-dasharray="3 15" stroke-linecap="round" opacity="0.22"/><text x="960" y="196" text-anchor="middle" font-family="ui-monospace,SFMono-Regular,Menlo,monospace" font-size="62" letter-spacing="1" fill="#e8eef6">claude-infrastructure</text><text x="960" y="232" text-anchor="middle" font-family="ui-monospace,SFMono-Regular,Menlo,monospace" font-size="19" letter-spacing="6" fill="#7d8895">SESSIONS RUN EACH OTHER</text><g transform="translate(852 391) scale(.72)"><use href="#clawd"/></g></svg>